<svg width="120" height="116.88" viewBox="0 0 120 116.88" xmlns="http://www.w3.org/2000/svg">
  <path d="M120 109.38c0 4.12-3.38 7.5-7.5 7.5H7.5c-4.12 0-7.5-3.38-7.5-7.5v-45c0-4.12 2.39-9.89 5.3-12.8L54.7 2.19c2.92-2.92 7.69-2.92 10.61 0l49.39 49.39c2.92 2.92 5.3 8.68 5.3 12.8v45Z" fill="#F7931E"/>
  <circle cx="33" cy="65.88" r="8" fill="#F2F4F9"/>
  <circle cx="87" cy="65.88" r="8" fill="#F2F4F9"/>
  <path d="M44 96.88c0-8.84 7.16-16 16-16s16 7.16 16 16" fill="none" stroke="#F2F4F9" stroke-width="6"/>
  <path d="M108.97 24.83h-5.52c0-4.56-3.71-8.28-8.28-8.28v-5.52c7.61 0 13.79 6.19 13.79 13.79Z" fill="#F7931E"/>
  <circle cx="95.17" cy="24.83" r="2.76" fill="#F7931E"/>
  <path d="M120 24.83h-5.52c0-10.65-8.66-19.31-19.31-19.31V0C108.86 0 120 11.14 120 24.83Z" fill="#F7931E"/>
</svg>
